<svg width="380" height="299" viewBox="0 0 380 299" fill="none" xmlns="http://www.w3.org/2000/svg">
<path d="M207.033 28.9357C244.834 -8.12526 304.915 -8.84151 342.833 28.3337L365.938 50.9868C367.156 52.1809 367.156 54.1173 365.938 55.3115L233.935 184.729C232.717 185.923 230.743 185.923 229.525 184.729L206.419 162.076C168.501 124.9 169.231 65.9967 207.033 28.9357Z" fill="#16191B"/>
<path d="M136.562 141.913C136.028 141.665 135.947 140.945 136.413 140.589C154.891 126.452 166.599 104.251 166.599 79.1869C166.599 36.2592 132.256 1.73041 88.373 1.73041H4.00187C2.2796 1.73041 0.883422 3.09944 0.883422 4.78822L0.883414 133.973H0.880867L0.880859 295.274C0.880859 296.963 2.27704 298.332 3.99931 298.332H100.255C147.2 298.332 183.939 261.698 183.939 216.152C183.939 183.304 164.829 155.091 136.562 141.913Z" fill="#16191B"/>
<path d="M316.089 121.91C317.307 120.716 319.281 120.716 320.499 121.91L328.877 130.124C330.095 131.319 330.095 133.255 328.877 134.449L212.689 248.361C211.467 249.559 209.484 249.554 208.268 248.35L199.933 240.093C198.726 238.897 198.731 236.969 199.945 235.779L316.089 121.91Z" fill="#16191B"/>
<path d="M234.331 269.801C233.109 270.999 231.126 270.994 229.91 269.789L221.525 261.483C220.318 260.287 220.323 258.359 221.537 257.17L279.672 200.07L337.794 143.19C339.012 141.996 340.986 141.996 342.204 143.19L350.632 151.453C351.85 152.647 351.85 154.584 350.632 155.778L234.331 269.801Z" fill="#16191B"/>
<path d="M243.179 278.609C241.965 279.799 241.96 281.727 243.167 282.923L251.552 291.229C252.768 292.433 254.751 292.438 255.973 291.24L372.387 177.107C373.605 175.913 373.605 173.976 372.387 172.782L363.958 164.519C362.741 163.325 360.766 163.325 359.549 164.519L243.179 278.609Z" fill="#16191B"/>
<path d="M293.105 297.493C292.521 298.066 291.727 298.388 290.9 298.388H270.279C268.89 298.388 268.194 296.741 269.176 295.778L376.876 190.188C377.86 189.224 379.542 189.91 379.538 191.274L379.474 211.558C379.472 212.366 379.143 213.14 378.561 213.711L293.105 297.493Z" fill="#16191B"/>
<path d="M379.402 234.065C379.407 232.7 377.725 232.014 376.741 232.978L312.686 295.778C311.704 296.741 312.399 298.388 313.789 298.388L348.364 298.388C349.196 298.388 349.994 298.062 350.579 297.482L378.381 269.965C378.956 269.395 379.281 268.626 379.284 267.823L379.402 234.065Z" fill="#16191B"/>
</svg>
