<svg width="448" height="510" viewBox="0 0 448 510" fill="none" xmlns="http://www.w3.org/2000/svg">
<path fill-rule="evenodd" clip-rule="evenodd" d="M235.469 179.412V358.824L234.032 366.333L232.595 373.843L229.899 380.671L227.202 387.5L222.857 394.103L218.511 400.706L211.198 407.603L203.884 414.5L197.427 418.276L190.969 422.051L182.969 424.667L174.969 427.283L162.799 427.759L150.628 428.236L142.799 426.541L134.969 424.845L125.969 420.499L116.969 416.153L110.173 410.516L103.376 404.879L98.79 398.69L94.203 392.5L90.381 384.646L86.559 376.792L84.898 369.326L83.237 361.859L83.685 349.18L84.133 336.5L86.859 328.5L89.585 320.5L93.681 313.5L97.777 306.5L105.89 298.5L114.004 290.5L120.486 286.724L126.969 282.949L134.969 280.407L142.969 277.865L150.641 276.985L158.313 276.105L167.272 277.032L176.231 277.959L178.915 278.98L181.599 280H182.034H182.469V238.09V196.18L173.742 195.453L165.014 194.726L150.492 195.309L135.969 195.893L124.969 198.449L113.969 201.006L107.469 203.135L100.969 205.264L90.546 210.144L80.123 215.024L70.546 221.416L60.969 227.808L52.969 234.794L44.969 241.78L37.969 249.98L30.969 258.18L26.141 265.34L21.312 272.5L16.458 282.097L11.605 291.693L8.035 301.949L4.465 312.204L2.28 322.352L0.0950012 332.5L0.0470009 351.5L0 370.5L2.26 381.728L4.521 392.956L8.088 403.228L11.656 413.5L16.557 423.059L21.458 432.618L26.899 440.535L32.34 448.452L39.155 456L45.969 463.547L53.178 469.979L60.386 476.412L69.636 482.719L78.885 489.026L88.095 493.536L97.304 498.046L109.137 501.907L120.969 505.769L130.969 507.635L140.969 509.5L159.469 509.472L177.969 509.444L189.197 507.196L200.425 504.948L210.697 501.394L220.969 497.841L230.313 493.228L239.657 488.614L248.604 482.513L257.552 476.412L264.76 469.979L271.969 463.547L278.783 456L285.598 448.452L291.039 440.535L296.48 432.618L301.472 422.899L306.464 413.18L310.041 402.491L313.618 391.802L315.728 382.151L317.839 372.5L318.194 269.75L318.548 167H319.551H320.554L325.762 170.808L330.969 174.616L338.489 179.268L346.009 183.921L357.835 189.542L369.66 195.163L381.595 199.082L393.53 203.001L405.75 205.456L417.969 207.911L428.325 208.956L438.681 210H443.075H447.469V169.138V128.275L438.719 127.58L429.969 126.884L422.498 125.356L415.027 123.828L406.998 121.294L398.969 118.761L389.469 113.974L379.969 109.186L372.625 104.001L365.282 98.816L357.801 91.71L350.32 84.604L344.451 76.815L338.582 69.026L334.913 62.465L331.243 55.904L327.953 48.103L324.663 40.302L322.024 29.901L319.385 19.5L318.776 9.75L318.167 0H276.818H235.469V179.412Z" fill="white"/>
</svg>
