<svg width="499" height="512" viewBox="0 0 499 512" fill="none" xmlns="http://www.w3.org/2000/svg">
<path fill-rule="evenodd" clip-rule="evenodd" d="M0.118 0.504V1.008L96.747 141.638L193.376 282.269L193.816 283.954L194.257 285.639L97.792 397.746L1.327 509.853L0.664 510.926L0 512H20.97H41.941L127.279 412.827L212.618 313.655L213.618 313.35L214.618 313.045L282.92 412.522L351.222 512H424.67H498.118V511.474V510.948L397.052 363.875L295.987 216.802L297.421 215.151L298.855 213.5L388.629 109L478.402 4.5L480.434 2.25L482.467 0L461.042 0.06L439.618 0.121L358.618 94.517L277.618 188.914L277.118 188.91L276.618 188.906L211.815 94.453L147.012 0H73.565H0.118V0.504ZM283.358 256.301L439.118 479.101V480.051V481L404.868 480.938L370.618 480.876L215.118 258.299L59.618 35.722L59.292 34.348L58.966 32.974L93.282 33.237L127.598 33.5L283.358 256.301Z" fill="white"/>
</svg>
