<svg width="513" height="359" viewBox="0 0 513 359" fill="none" xmlns="http://www.w3.org/2000/svg">
<path fill-rule="evenodd" clip-rule="evenodd" d="M192.283 0.648003L181.783 0.904999L152.283 1.961L122.783 3.018L108.783 4.012L94.783 5.006L80.783 6.553L66.783 8.1L59.783 9.618L52.783 11.136L44.652 15.099L36.522 19.062L30.443 24.563L24.365 30.063L19.356 37.552L14.348 45.041L11.912 52.755L9.476 60.47L7.395 72.97L5.314 85.47L3.854 100.47L2.393 115.47L1.197 140.47L0 165.47L0.612 194.97L1.223 224.47L2.257 238.97L3.29 253.47L4.83 267.47L6.37 281.47L8.81 293.47L11.249 305.47L15.419 313.97L19.589 322.47L27.686 330.517L35.783 338.564L42.783 342.177L49.783 345.791L55.283 347.36L60.783 348.929L70.783 350.41L80.783 351.892L99.283 353.404L117.783 354.917L140.283 355.996L162.783 357.076L209.357 357.835L255.931 358.593L302.857 357.843L349.783 357.092L373.283 356.005L396.783 354.918L410.283 353.912L423.783 352.906L436.283 351.384L448.783 349.862L456.238 347.863L463.693 345.864L470.238 342.405L476.783 338.946L482.492 333.911L488.201 328.876L493.035 321.649L497.869 314.422L500.491 306.446L503.113 298.47L505.193 285.97L507.273 273.47L508.754 257.47L510.234 241.47L511.258 221.073L512.283 200.677L512.277 177.573L512.27 154.47L511.275 134.97L510.279 115.47L508.707 99.47L507.135 83.47L505.186 72.198L503.237 60.926L500.727 52.984L498.218 45.041L493.204 37.544L488.19 30.047L482.589 25.055L476.987 20.062L470.385 16.639L463.783 13.216L458.783 11.62L453.783 10.023L445.268 8.56L436.753 7.098L420.268 5.567L403.783 4.037L383.783 2.99L363.783 1.943L330.283 0.971001L296.783 0L249.783 0.195999L202.783 0.391998L192.283 0.648003ZM272.223 140.96L337.29 178.449L336.979 179.381L336.668 180.314L271.892 217.642L207.115 254.97H206.199H205.283V178.887V102.803L206.22 103.137L207.157 103.47L272.223 140.96Z" fill="white"/>
</svg>
